<?xml version="1.0" encoding="UTF-8"?>
<svg width="303px" height="12px" viewBox="0 0 303 12" version="1.1" xmlns="http://www.w3.org/2000/svg" xmlns:xlink="http://www.w3.org/1999/xlink">
    <!-- Generator: Sketch 41.2 (35397) - http://www.bohemiancoding.com/sketch -->
    <title>time-line</title>
    <desc>Created with Sketch.</desc>
    <defs></defs>
    <g id="Symbols" stroke="none" stroke-width="1" fill="none" fill-rule="evenodd">
        <g id="Time-Bar" transform="translate(-40.000000, -6.000000)" fill="#354052">
            <g id="time-line">
                <g transform="translate(40.000000, 6.000000)">
                    <g id="Small-Ticks" transform="translate(13.000000, 3.000000)" fill-opacity="0.75">
                        <rect id="Small-Tick" x="0.5" y="0" width="1" height="6"></rect>
                        <rect id="Small-Tick" x="13" y="0" width="1" height="6"></rect>
                        <rect id="Small-Tick" x="25.5" y="0" width="1" height="6"></rect>
                        <rect id="Small-Tick" x="50.5" y="0" width="1" height="6"></rect>
                        <rect id="Small-Tick" x="63" y="0" width="1" height="6"></rect>
                        <rect id="Small-Tick" x="75.5" y="0" width="1" height="6"></rect>
                        <rect id="Small-Tick" x="100.5" y="0" width="1" height="6"></rect>
                        <rect id="Small-Tick" x="113" y="0" width="1" height="6"></rect>
                        <rect id="Small-Tick" x="125.5" y="0" width="1" height="6"></rect>
                        <rect id="Small-Tick" x="150.5" y="0" width="1" height="6"></rect>
                        <rect id="Small-Tick" x="163" y="0" width="1" height="6"></rect>
                        <rect id="Small-Tick" x="175.5" y="0" width="1" height="6"></rect>
                        <rect id="Small-Tick" x="200.5" y="0" width="1" height="6"></rect>
                        <rect id="Small-Tick" x="213" y="0" width="1" height="6"></rect>
                        <rect id="Small-Tick" x="225.5" y="0" width="1" height="6"></rect>
                        <rect id="Small-Tick" x="250.5" y="0" width="1" height="6"></rect>
                        <rect id="Small-Tick" x="263" y="0" width="1" height="6"></rect>
                        <rect id="Small-Tick" x="275.5" y="0" width="1" height="6"></rect>
                    </g>
                    <rect id="Horizontal-Line" fill-opacity="0.5" x="1" y="5" width="300" height="2"></rect>
                    <g id="Big-Ticks">
                        <rect id="Big-Tick" x="0" y="0" width="2" height="12"></rect>
                        <rect id="Big-Tick" x="50.1666667" y="0" width="2" height="12"></rect>
                        <rect id="Big-Tick" x="100.333333" y="0" width="2" height="12"></rect>
                        <rect id="Big-Tick" x="150.5" y="0" width="2" height="12"></rect>
                        <rect id="Big-Tick" x="200.666667" y="0" width="2" height="12"></rect>
                        <rect id="Big-Tick" x="250.833333" y="0" width="2" height="12"></rect>
                        <rect id="Big-Tick" x="301" y="0" width="2" height="12"></rect>
                    </g>
                </g>
            </g>
        </g>
    </g>
</svg>